<?xml version="1.0" standalone="no"?>
<!DOCTYPE svg PUBLIC "-//W3C//DTD SVG 20010904//EN"
 "http://www.w3.org/TR/2001/REC-SVG-20010904/DTD/svg10.dtd">
<svg version="1.0" xmlns="http://www.w3.org/2000/svg"
 width="300.000000pt" height="270.000000pt" viewBox="0 0 300.000000 270.000000"
 preserveAspectRatio="xMidYMid meet">
<metadata>
Created by potrace 1.10, written by Peter Selinger 2001-2011
</metadata>
<g transform="translate(0.000000,270.000000) scale(0.100000,-0.100000)"
fill="#000000" stroke="none">
<path d="M548 1939 l-158 -151 0 -521 0 -522 158 -158 157 -157 220 0 220 0
156 158 157 157 -2 522 -1 523 -150 150 -150 150 -225 0 -225 0 -157 -151z
m740 -21 l142 -142 0 -504 c0 -527 0 -525 -45 -563 -35 -30 -107 -99 -103 -99
6 0 -143 -150 -150 -151 -4 -1 -90 -3 -192 -4 -133 -2 -193 1 -215 10 -31 13
-95 71 -95 86 0 5 -5 9 -11 9 -15 0 -59 47 -59 62 0 6 -3 9 -6 5 -7 -7 -44 29
-44 43 0 6 -5 10 -11 10 -7 0 -28 17 -48 37 l-36 38 0 130 c1 72 2 225 3 340
1 116 1 286 0 378 l-3 168 142 138 c78 77 144 136 147 133 3 -3 6 0 6 6 0 7
67 11 218 12 l217 1 143 -143z"/>
<path d="M767 1895 c-24 -12 -134 -119 -175 -170 -10 -12 -14 -55 -13 -168 0
-84 1 -284 1 -444 l0 -293 98 -98 c72 -72 108 -101 132 -105 58 -12 219 -8
253 6 35 15 178 149 196 184 11 22 17 851 7 902 -6 27 -16 39 -101 123 -33 33
-70 64 -83 69 -40 15 -283 11 -315 -6z m399 -101 l84 -86 0 -429 c0 -350 -3
-435 -14 -457 -8 -15 -50 -62 -94 -104 l-80 -78 -132 0 -132 0 -99 99 -99 99
0 433 0 432 87 89 87 88 154 0 154 0 84 -86z"/>
<path d="M1587 2083 c-4 -3 -7 -377 -7 -830 l0 -823 379 0 379 0 159 161 c87
88 159 162 161 164 2 2 3 137 3 301 0 295 0 297 -23 323 -69 77 -116 124 -145
144 -18 12 -35 28 -38 35 -3 8 36 55 95 113 55 55 100 102 100 103 0 2 -71 74
-157 160 l-158 156 -371 0 c-204 0 -374 -3 -377 -7z m743 -33 c10 -6 78 -68
150 -140 87 -86 129 -134 124 -142 -5 -7 -44 -50 -88 -96 -44 -45 -81 -91 -83
-101 -2 -13 31 -53 102 -124 l104 -105 -2 -289 -2 -290 -152 -151 c-84 -84
-159 -152 -165 -153 -7 0 -165 -1 -351 -1 -225 -1 -341 2 -348 9 -17 17 -12
1575 4 1585 18 12 685 10 707 -2z"/>
<path d="M1882 1884 c-56 -28 -105 -85 -95 -112 4 -9 2 -13 -4 -9 -7 4 -13 -9
-15 -36 -4 -32 0 -47 15 -64 20 -23 25 -23 241 -23 l221 1 57 52 c76 69 80 91
31 150 -21 25 -51 50 -67 56 -16 6 -97 11 -181 11 -143 0 -154 -1 -203 -26z
m425 -51 c24 -26 43 -50 43 -53 0 -3 -24 -29 -52 -57 l-53 -52 -223 -3 c-206
-3 -223 -2 -228 15 -8 26 25 122 50 146 49 46 72 51 251 51 l170 0 42 -47z"/>
<path d="M1793 1471 c-22 -19 -22 -22 -23 -287 -1 -375 6 -535 25 -554 12 -12
54 -15 213 -18 108 -2 212 0 231 3 22 4 52 24 85 57 28 28 62 60 76 72 14 11
36 37 50 56 24 34 25 40 28 241 5 240 8 229 -95 335 -110 113 -90 107 -346
110 -203 3 -224 1 -244 -15z m561 -108 l96 -96 0 -216 0 -216 -97 -97 -98 -98
-227 0 -228 0 0 291 c0 160 -2 342 -4 404 -2 63 -1 116 2 119 3 3 108 6 233 6
l227 0 96 -97z"/>
</g>
</svg>
